<svg width="705" height="3733" viewBox="0 0 705 3733" fill="none" xmlns="http://www.w3.org/2000/svg">
<path d="M25.1721 1437.47L120.48 824.441C121.17 819.896 123.276 815.686 126.498 812.408C129.72 809.13 133.894 806.952 138.426 806.184C142.957 805.416 147.616 806.097 151.738 808.131C155.86 810.164 159.235 813.446 161.384 817.509L263.865 1009.78L25.1721 1437.47ZM702 1586.22L611.246 1022.07C610.579 1018.11 608.838 1014.42 606.213 1011.39C603.588 1008.36 600.181 1006.1 596.363 1004.88C592.545 1003.65 588.464 1003.5 584.564 1004.43C580.664 1005.37 577.097 1007.36 574.251 1010.18L2 1586.22L318.632 1764.67C328.397 1770.15 339.409 1773.03 350.61 1773.03C361.81 1773.03 372.822 1770.15 382.587 1764.67L702 1586.22ZM444.689 1093.92L371.344 953.6C369.493 950.071 366.713 947.116 363.303 945.054C359.893 942.992 355.985 941.902 352 941.902C348.015 941.902 344.107 942.992 340.697 945.054C337.287 947.116 334.507 950.071 332.656 953.6L10.6644 1530.61L444.689 1093.92Z" fill="#F11348"/>
<path d="M702 2945L636.365 3655.93L351.995 3732.5L67.6214 3655.93L2 2945H702ZM569.742 3089.56H129.876L140.486 3175.41H363.606L148.207 3265.12L154.957 3349.03L457.209 3350.01L450.458 3461.9L351.738 3489.69V3489.61L350.929 3489.83L255.591 3465.76L249.805 3396.31H160.747L172.322 3530.39L351.741 3583.45V3583.35L352.065 3583.45L530.522 3531.36L553.671 3265.12H351.243L351.741 3264.9L561.068 3175.41L569.742 3089.56Z" fill="#F11348"/>
<path d="M702 312.259C702 265.887 643.928 221.941 554.894 194.689C575.441 103.943 566.309 31.7455 526.073 8.63094C516.798 3.20901 505.954 0.640727 494.112 0.640727V32.4589C500.675 32.4589 505.954 33.7431 510.377 36.1687C529.782 47.2979 538.201 89.6746 531.637 144.179C530.068 157.591 527.499 171.717 524.36 186.128C496.395 179.279 465.861 174 433.757 170.575C414.495 144.179 394.519 120.209 374.401 99.2343C420.916 56.0015 464.576 32.3162 494.254 32.3162V0.498047C455.017 0.498047 403.651 28.4638 351.715 76.9758C299.778 28.7492 248.413 1.06878 209.175 1.06878V32.887C238.71 32.887 282.514 56.4296 329.028 99.377C309.053 120.351 289.077 144.179 270.1 170.575C237.854 174 207.32 179.279 179.354 186.271C176.073 172.002 173.647 158.162 171.935 144.893C165.229 90.388 173.504 48.0113 192.766 36.7394C197.047 34.1711 202.611 33.0296 209.175 33.0296V1.21146C197.19 1.21146 186.346 3.77974 176.929 9.20167C136.835 32.3162 127.846 104.371 148.535 194.832C59.7864 222.227 2 266.03 2 312.259C2 358.631 60.0717 402.577 149.106 429.829C128.559 520.575 137.691 592.773 177.927 615.887C187.202 621.309 198.046 623.878 210.031 623.878C249.269 623.878 300.634 595.912 352.571 547.4C404.507 595.626 455.873 623.307 495.11 623.307C507.096 623.307 517.94 620.739 527.357 615.317C567.451 592.202 576.439 520.147 555.75 429.687C644.214 402.434 702 358.488 702 312.259ZM516.227 217.09C510.948 235.496 504.385 254.473 496.965 273.45C491.115 262.035 484.98 250.62 478.274 239.206C471.711 227.791 464.719 216.662 457.728 205.818C477.989 208.814 497.536 212.524 516.227 217.09ZM450.879 369.047C439.75 388.309 428.335 406.572 416.492 423.551C395.233 425.406 373.688 426.405 352 426.405C330.455 426.405 308.91 425.406 287.793 423.694C275.95 406.715 264.393 388.594 253.264 369.475C242.42 350.783 232.575 331.807 223.586 312.687C232.432 293.568 242.42 274.448 253.121 255.757C264.25 236.495 275.665 218.231 287.508 201.252C308.767 199.397 330.312 198.399 352 198.399C373.545 198.399 395.09 199.397 416.207 201.11C428.05 218.089 439.607 236.209 450.736 255.329C461.58 274.02 471.425 292.997 480.414 312.116C471.425 331.236 461.58 350.355 450.879 369.047ZM496.965 350.498C504.67 369.617 511.234 388.737 516.656 407.286C497.964 411.851 478.274 415.704 457.87 418.7C464.862 407.714 471.853 396.442 478.417 384.884C484.98 373.47 491.115 361.913 496.965 350.498ZM352.285 502.74C339.016 489.043 325.746 473.776 312.62 457.082C325.461 457.653 338.588 458.081 351.857 458.081C365.269 458.081 378.539 457.795 391.523 457.082C378.682 473.776 365.412 489.043 352.285 502.74ZM246.13 418.7C225.869 415.704 206.321 411.994 187.63 407.428C192.909 389.022 199.472 370.046 206.892 351.069C212.742 362.483 218.877 373.898 225.583 385.313C232.289 396.727 239.138 407.856 246.13 418.7ZM351.572 121.778C364.841 135.476 378.111 150.743 391.238 167.436C378.396 166.866 365.269 166.438 352 166.438C338.588 166.438 325.318 166.723 312.334 167.436C325.176 150.743 338.445 135.476 351.572 121.778ZM245.987 205.818C238.996 216.805 232.004 228.077 225.441 239.634C218.877 251.048 212.742 262.463 206.892 273.878C199.187 254.758 192.624 235.639 187.202 217.09C205.893 212.667 225.583 208.814 245.987 205.818ZM116.859 384.456C66.3498 362.911 33.6755 334.66 33.6755 312.259C33.6755 289.858 66.3498 261.464 116.859 240.062C129.13 234.783 142.542 230.074 156.382 225.651C164.515 253.617 175.216 282.724 188.486 312.545C175.359 342.222 164.801 371.187 156.81 399.01C142.685 394.587 129.273 389.736 116.859 384.456ZM193.623 588.35C174.218 577.22 165.799 534.844 172.363 480.339C173.932 466.927 176.501 452.801 179.64 438.39C207.605 445.239 238.139 450.518 270.243 453.943C289.505 480.339 309.481 504.31 329.599 525.284C283.084 568.517 239.424 592.202 209.746 592.202C203.325 592.059 197.903 590.775 193.623 588.35ZM532.065 479.626C538.771 534.13 530.496 576.507 511.234 587.779C506.953 590.347 501.388 591.489 494.825 591.489C465.29 591.489 421.486 567.946 374.972 524.999C394.947 504.024 414.923 480.196 433.9 453.8C466.146 450.376 496.68 445.096 524.646 438.105C527.927 452.516 530.496 466.356 532.065 479.626ZM586.998 384.456C574.727 389.736 561.315 394.444 547.475 398.867C539.342 370.902 528.641 341.794 515.371 311.974C528.498 282.296 539.057 253.331 547.047 225.508C561.172 229.931 574.585 234.783 587.141 240.062C637.65 261.607 670.324 289.858 670.324 312.259C670.182 334.66 637.508 363.054 586.998 384.456Z" fill="#F11348"/>
<path d="M351.857 377.464C387.869 377.464 417.063 348.271 417.063 312.259C417.063 276.246 387.869 247.053 351.857 247.053C315.845 247.053 286.651 276.246 286.651 312.259C286.651 348.271 315.845 377.464 351.857 377.464Z" fill="#F11348"/>
<path d="M0 1960L64.0688 2678.62L351.578 2758.43L639.883 2678.51L704.022 1960H0ZM564.603 2195.03H227.33L235.384 2285.29H556.58L554.428 2308.95L532.391 2555.87L352.011 2605.86V2605.88L351.606 2606L171.064 2555.87L158.716 2417.49H247.191L253.466 2487.78L351.622 2514.29L351.703 2514.27V2514.26L450.009 2487.73L460.231 2373.42H154.778L131.006 2106.9H572.486L564.603 2195.03Z" fill="#F11348"/>
</svg>
