<svg width="950" height="2494" viewBox="0 0 950 2494" fill="none" xmlns="http://www.w3.org/2000/svg">
<path d="M696.575 68.7689C670.688 38.0449 648.396 6.8409 643.842 0.360047C643.363 -0.120016 642.643 -0.120016 642.164 0.360047C637.61 6.8409 615.319 38.0449 589.431 68.7689C367.236 352.245 624.427 543.551 624.427 543.551L626.584 544.991C628.501 574.513 633.295 617 633.295 617H642.883H652.471C652.471 617 657.265 574.754 659.183 544.991L661.34 543.311C661.579 543.551 918.771 352.245 696.575 68.7689ZM642.883 539.469C642.883 539.469 631.378 529.629 628.262 524.587V524.109L642.164 215.428C642.164 214.468 643.602 214.468 643.602 215.428L657.504 524.109V524.587C654.389 529.629 642.883 539.469 642.883 539.469Z" fill="#F11348"/>
<path fill-rule="evenodd" clip-rule="evenodd" d="M642.499 1274C770.353 1274 873.999 1170.35 873.999 1042.5C873.999 914.646 770.353 811 642.499 811C514.646 811 411 914.646 411 1042.5C411 1170.35 514.646 1274 642.499 1274ZM793.265 1130.59C800.491 1141.49 808.545 1144.66 821.565 1141.34L749.797 1045.61C745.681 1040.19 745.066 1036.35 749.54 1030.73L787.124 981.597L814.864 944.672C802.516 941.055 795.122 944.784 788.243 954.588L734.551 1026.46L681.252 954.195C673.701 943.133 665.2 941.909 652.896 944.312L724.44 1037.86L647.594 1141.43C660.391 1144.9 667.583 1140.63 674.44 1130.83L734.451 1049.33L741.878 1059.21L793.265 1130.59ZM469.999 1005.09L463.713 1036.13V1036.14C463.713 1041.95 463.683 1047.76 463.624 1053.57C463.839 1054.67 464.077 1055.75 464.316 1056.85C464.823 1059.16 465.333 1061.5 465.637 1063.91C468.478 1085.38 474.809 1105.46 490.134 1121.3C515.861 1148.62 564.764 1154.97 599.026 1135.32C621.957 1122.19 632.807 1101.21 637.617 1076.1C628.198 1073.23 623.142 1074.8 620.089 1084.86C614.071 1104.94 602.046 1120.99 581.632 1127.87C523.433 1147.48 477.785 1109.05 480.178 1045.38H639.507C640.905 1010 633.88 978.419 605.614 956.093C557.248 918.134 487.113 943.661 469.999 1005.09ZM624.451 1031.87H480.469C482.326 984.428 513.087 952.499 555.928 952.836C594.954 953.117 623.511 985.82 624.451 1031.87Z" fill="#F11348"/>
<path d="M901.785 1699.05C901.785 1664.69 858.747 1632.12 792.762 1611.92C807.989 1544.67 801.222 1491.16 771.401 1474.03C764.528 1470.01 756.491 1468.11 747.715 1468.11V1491.69C752.579 1491.69 756.491 1492.64 759.77 1494.44C774.151 1502.68 780.39 1534.09 775.526 1574.49C774.362 1584.43 772.459 1594.89 770.133 1605.57C749.407 1600.5 726.777 1596.59 702.984 1594.05C688.709 1574.49 673.905 1556.72 658.995 1541.18C693.467 1509.13 725.825 1491.58 747.82 1491.58V1468C718.74 1468 680.672 1488.73 642.181 1524.68C603.69 1488.94 565.622 1468.42 536.542 1468.42V1492C558.431 1492 590.895 1509.45 625.368 1541.28C610.563 1556.83 595.759 1574.49 581.695 1594.05C557.797 1596.59 535.167 1600.5 514.441 1605.68C512.009 1595.11 510.211 1584.85 508.942 1575.01C503.972 1534.62 510.106 1503.21 524.381 1494.86C527.553 1492.96 531.678 1492.11 536.542 1492.11V1468.53C527.659 1468.53 519.623 1470.43 512.643 1474.45C482.929 1491.58 476.267 1544.98 491.6 1612.02C425.827 1632.33 383 1664.79 383 1699.05C383 1733.42 426.038 1765.99 492.023 1786.19C476.796 1853.44 483.564 1906.95 513.384 1924.08C520.257 1928.1 528.294 1930 537.176 1930C566.256 1930 604.324 1909.27 642.816 1873.32C681.307 1909.06 719.375 1929.58 748.455 1929.58C757.337 1929.58 765.374 1927.67 772.353 1923.66C802.068 1906.52 808.729 1853.12 793.396 1786.08C858.958 1765.88 901.785 1733.31 901.785 1699.05ZM764.105 1628.52C760.192 1642.16 755.328 1656.23 749.829 1670.29C745.494 1661.83 740.947 1653.37 735.977 1644.91C731.113 1636.45 725.931 1628.2 720.75 1620.17C735.765 1622.39 750.252 1625.14 764.105 1628.52ZM715.674 1741.14C707.426 1755.41 698.966 1768.95 690.189 1781.53C674.433 1782.91 658.466 1783.65 642.393 1783.65C626.425 1783.65 610.458 1782.91 594.807 1781.64C586.03 1769.06 577.465 1755.63 569.217 1741.46C561.18 1727.6 553.884 1713.54 547.222 1699.37C553.778 1685.2 561.18 1671.03 569.111 1657.18C577.359 1642.9 585.819 1629.37 594.596 1616.78C610.352 1615.41 626.319 1614.67 642.393 1614.67C658.36 1614.67 674.328 1615.41 689.978 1616.68C698.755 1629.26 707.32 1642.69 715.568 1656.86C723.605 1670.71 730.901 1684.78 737.563 1698.95C730.901 1713.12 723.605 1727.29 715.674 1741.14ZM749.829 1727.39C755.54 1741.56 760.404 1755.73 764.422 1769.48C750.57 1772.86 735.977 1775.72 720.855 1777.94C726.037 1769.8 731.218 1761.44 736.083 1752.88C740.947 1744.42 745.494 1735.85 749.829 1727.39ZM642.604 1840.22C632.77 1830.07 622.935 1818.76 613.207 1806.38C622.724 1806.81 632.453 1807.12 642.287 1807.12C652.227 1807.12 662.061 1806.91 671.684 1806.38C662.167 1818.76 652.333 1830.07 642.604 1840.22ZM563.93 1777.94C548.914 1775.72 534.427 1772.97 520.574 1769.58C524.487 1755.94 529.351 1741.88 534.85 1727.82C539.185 1736.28 543.732 1744.73 548.702 1753.19C553.672 1761.65 558.748 1769.9 563.93 1777.94ZM642.075 1557.88C651.91 1568.03 661.744 1579.35 671.472 1591.72C661.955 1591.3 652.227 1590.98 642.393 1590.98C632.453 1590.98 622.618 1591.19 612.995 1591.72C622.513 1579.35 632.347 1568.03 642.075 1557.88ZM563.824 1620.17C558.643 1628.31 553.461 1636.66 548.597 1645.23C543.732 1653.69 539.185 1662.15 534.85 1670.61C529.14 1656.44 524.275 1642.27 520.257 1628.52C534.11 1625.24 548.702 1622.39 563.824 1620.17ZM468.125 1752.56C430.691 1736.59 406.475 1715.65 406.475 1699.05C406.475 1682.45 430.691 1661.41 468.125 1645.55C477.219 1641.63 487.159 1638.14 497.416 1634.87C503.444 1655.59 511.374 1677.16 521.209 1699.26C511.48 1721.26 503.655 1742.73 497.733 1763.35C487.265 1760.07 477.325 1756.47 468.125 1752.56ZM525.016 1903.67C510.634 1895.42 504.395 1864.02 509.26 1823.62C510.423 1813.68 512.326 1803.21 514.653 1792.53C535.379 1797.61 558.008 1801.52 581.801 1804.06C596.076 1823.62 610.881 1841.39 625.791 1856.93C591.318 1888.97 558.96 1906.52 536.965 1906.52C532.206 1906.42 528.188 1905.47 525.016 1903.67ZM775.843 1823.09C780.813 1863.49 774.68 1894.89 760.404 1903.25C757.232 1905.15 753.108 1906 748.243 1906C726.354 1906 693.89 1888.55 659.418 1856.72C674.222 1841.17 689.026 1823.51 703.09 1803.95C726.989 1801.41 749.618 1797.5 770.344 1792.32C772.776 1803 774.68 1813.26 775.843 1823.09ZM816.555 1752.56C807.461 1756.47 797.521 1759.96 787.263 1763.24C781.236 1742.51 773.305 1720.94 763.471 1698.84C773.199 1676.85 781.024 1655.38 786.946 1634.76C797.415 1638.04 807.355 1641.63 816.66 1645.55C854.094 1661.51 878.31 1682.45 878.31 1699.05C878.204 1715.65 853.988 1736.7 816.555 1752.56Z" fill="#F11348"/>
<path d="M642.287 1747.38C668.976 1747.38 690.612 1725.74 690.612 1699.05C690.612 1672.36 668.976 1650.73 642.287 1650.73C615.597 1650.73 593.961 1672.36 593.961 1699.05C593.961 1725.74 615.597 1747.38 642.287 1747.38Z" fill="#F11348"/>
<path d="M639.081 2494C637.057 2494 635.047 2493.48 633.272 2492.47L614.785 2481.69C612.024 2480.17 613.371 2479.63 614.282 2479.32C617.964 2478.05 618.711 2477.76 622.641 2475.56C623.054 2475.33 623.594 2475.41 624.017 2475.66L638.22 2483.96C638.733 2484.23 639.46 2484.23 639.936 2483.96L695.313 2452.47C695.826 2452.18 696.159 2451.59 696.159 2450.99V2388.04C696.159 2387.41 695.826 2386.85 695.302 2386.53L639.947 2355.07C639.434 2354.77 638.755 2354.77 638.242 2355.07L582.898 2386.53C582.361 2386.83 582.02 2387.42 582.02 2388.02V2450.98C582.02 2451.58 582.353 2452.15 582.88 2452.44L598.045 2461.07C606.278 2465.13 611.31 2460.35 611.31 2455.54V2393.4C611.31 2392.52 612.017 2391.83 612.918 2391.83H619.932C620.805 2391.83 621.526 2392.52 621.526 2393.4V2455.57C621.526 2466.38 615.538 2472.6 605.128 2472.6C601.926 2472.6 599.403 2472.6 592.361 2469.18L577.834 2460.94C574.244 2458.89 572.026 2455.06 572.026 2450.98V2388.02C572.026 2383.93 574.244 2380.1 577.834 2378.08L633.267 2346.58C636.774 2344.62 641.431 2344.62 644.911 2346.58L700.274 2378.09C703.85 2380.13 706.082 2383.94 706.082 2388.04V2450.99C706.082 2455.08 703.85 2458.89 700.274 2460.94L644.911 2492.44C643.136 2493.45 641.126 2493.97 639.075 2493.97" fill="#F11348"/>
<path d="M656.186 2450.62C631.955 2450.62 626.875 2439.66 626.875 2430.47C626.875 2429.6 627.59 2428.9 628.479 2428.9H635.632C636.422 2428.9 637.087 2429.47 637.212 2430.23C638.293 2437.41 641.509 2441.04 656.161 2441.04C667.832 2441.04 672.795 2438.44 672.795 2432.34C672.795 2428.83 671.381 2426.22 653.25 2424.48C638.085 2423 628.715 2419.71 628.715 2407.76C628.715 2396.75 638.14 2390.2 653.929 2390.2C671.658 2390.2 680.446 2396.26 681.555 2409.29C681.597 2409.74 681.43 2410.18 681.125 2410.5C680.82 2410.82 680.391 2411.01 679.947 2411.01H672.753C672.004 2411.01 671.353 2410.49 671.2 2409.78C669.468 2402.23 665.282 2399.81 653.901 2399.81C641.162 2399.81 639.679 2404.18 639.679 2407.46C639.679 2411.43 641.426 2412.59 658.614 2414.83C675.636 2417.06 683.718 2420.2 683.718 2431.99C683.718 2443.87 673.654 2450.68 656.105 2450.68M723.556 2383.91H725.413C726.938 2383.91 727.229 2382.86 727.229 2382.25C727.229 2380.64 726.106 2380.64 725.483 2380.64H723.57L723.556 2383.91ZM721.296 2378.75H725.413C726.827 2378.75 729.6 2378.75 729.6 2381.87C729.6 2384.04 728.186 2384.49 727.34 2384.76C728.99 2384.87 729.1 2385.94 729.322 2387.44C729.433 2388.38 729.613 2390.01 729.946 2390.55H727.409C727.34 2390.01 726.952 2387 726.952 2386.84C726.786 2386.17 726.55 2385.84 725.704 2385.84H723.611V2390.57H721.296V2378.75ZM716.348 2384.63C716.348 2389.51 720.354 2393.47 725.275 2393.47C730.237 2393.47 734.243 2389.43 734.243 2384.63C734.243 2379.72 730.182 2375.83 725.261 2375.83C720.409 2375.83 716.334 2379.67 716.334 2384.61M735.962 2384.65C735.962 2390.44 731.152 2395.17 725.289 2395.17C719.467 2395.17 714.615 2390.5 714.615 2384.65C714.615 2378.7 719.578 2374.14 725.289 2374.14C731.041 2374.14 735.948 2378.71 735.948 2384.65" fill="#F11348"/>
<path fill-rule="evenodd" clip-rule="evenodd" d="M467.597 2247.66C467.597 2245.15 466.252 2242.84 464.051 2241.59L405.339 2208.31C404.348 2207.74 403.237 2207.44 402.112 2207.39H401.505C400.379 2207.44 399.269 2207.74 398.261 2208.31L339.551 2241.59C337.364 2242.85 336 2245.15 336 2247.67L336.129 2337.31C336.129 2338.55 336.78 2339.71 337.889 2340.33C338.971 2340.98 340.329 2340.98 341.41 2340.33L376.314 2320.64C378.518 2319.34 379.862 2317.06 379.862 2314.57V2272.69C379.862 2270.19 381.207 2267.89 383.404 2266.64L398.264 2258.21C399.367 2257.58 400.579 2257.27 401.812 2257.27C403.027 2257.27 404.266 2257.58 405.339 2258.21L420.191 2266.64C422.39 2267.88 423.74 2270.19 423.74 2272.69V2314.56C423.74 2317.05 425.103 2319.34 427.295 2320.63L462.177 2340.31C463.272 2340.95 464.635 2340.95 465.725 2340.31C466.801 2339.69 467.483 2338.53 467.483 2337.29L467.597 2247.66ZM744.646 2294.33C744.646 2294.96 744.31 2295.54 743.759 2295.84L723.593 2307.3C723.046 2307.61 722.369 2307.61 721.823 2307.3L701.655 2295.84C701.1 2295.53 700.767 2294.96 700.767 2294.33V2271.4C700.767 2270.77 701.1 2270.19 701.641 2269.88L721.796 2258.41C722.35 2258.09 723.029 2258.09 723.584 2258.41L743.752 2269.88C744.307 2270.19 744.64 2270.77 744.64 2271.4L744.646 2294.33ZM750.094 2124.44C748.993 2123.84 747.654 2123.85 746.568 2124.48C745.486 2125.11 744.818 2126.25 744.818 2127.5V2216.27C744.818 2217.14 744.347 2217.95 743.579 2218.38C742.817 2218.82 741.867 2218.82 741.098 2218.38L726.391 2210.04C724.201 2208.79 721.503 2208.79 719.305 2210.04L660.573 2243.43C658.379 2244.67 657.024 2246.98 657.024 2249.47V2316.28C657.024 2318.78 658.379 2321.07 660.573 2322.33L719.305 2355.74C721.497 2356.99 724.198 2356.99 726.398 2355.74L785.129 2322.31C787.319 2321.06 788.678 2318.76 788.678 2316.26V2149.76C788.678 2147.23 787.278 2144.89 785.032 2143.66L750.094 2124.44ZM945.672 2270.79C947.854 2269.54 949.197 2267.24 949.197 2264.75V2248.56C949.197 2246.07 947.852 2243.77 945.666 2242.52L887.309 2209.14C885.105 2207.89 882.402 2207.89 880.198 2209.14L821.48 2242.53C819.276 2243.79 817.931 2246.08 817.931 2248.58V2315.36C817.931 2317.88 819.304 2320.2 821.508 2321.44L879.851 2354.2C882 2355.42 884.634 2355.43 886.81 2354.24L922.102 2334.92C923.211 2334.31 923.918 2333.14 923.918 2331.89C923.918 2330.63 923.238 2329.46 922.129 2328.84L863.051 2295.44C861.942 2294.82 861.263 2293.66 861.263 2292.42V2271.47C861.263 2270.22 861.928 2269.07 863.037 2268.44L881.418 2258C882.513 2257.37 883.857 2257.37 884.952 2258L903.347 2268.44C904.442 2269.06 905.121 2270.22 905.121 2271.46V2287.93C905.121 2289.18 905.8 2290.34 906.895 2290.96C907.99 2291.58 909.349 2291.58 910.444 2290.95L945.672 2270.79Z" fill="#F11348"/>
<path fill-rule="evenodd" clip-rule="evenodd" d="M882.894 2267.67C883.31 2267.43 883.831 2267.43 884.253 2267.67L895.522 2274.07C895.943 2274.31 896.201 2274.76 896.201 2275.23V2288.06C896.201 2288.54 895.943 2288.98 895.522 2289.22L884.253 2295.62C883.831 2295.87 883.31 2295.87 882.894 2295.62L871.632 2289.22C871.202 2288.98 870.938 2288.54 870.938 2288.06V2275.23C870.938 2274.76 871.188 2274.31 871.618 2274.07L882.894 2267.67Z" fill="#F11348"/>
<mask id="mask0_241_106" style="mask-type:luminance" maskUnits="userSpaceOnUse" x="496" y="2208" width="132" height="148">
<path d="M558.789 2209.48L500.39 2242.68C498.203 2243.93 496.861 2246.22 496.861 2248.7V2315.17C496.861 2317.65 498.203 2319.94 500.39 2321.18L558.794 2354.42C560.977 2355.66 563.669 2355.66 565.849 2354.42L624.243 2321.18C626.419 2319.94 627.764 2317.65 627.764 2315.17V2248.7C627.764 2246.22 626.419 2243.93 624.229 2242.68L565.844 2209.48C564.749 2208.86 563.529 2208.55 562.309 2208.55C561.089 2208.55 559.869 2208.86 558.774 2209.48" fill="white"/>
</mask>
<g mask="url(#mask0_241_106)">
<path d="M686.778 2237.05L522.219 2157.58L437.844 2327.16L602.398 2406.63L686.778 2237.05Z" fill="#F11348"/>
</g>
<mask id="mask1_241_106" style="mask-type:luminance" maskUnits="userSpaceOnUse" x="498" y="2208" width="128" height="148">
<path d="M498.308 2319.39C498.867 2320.1 499.566 2320.72 500.388 2321.18L550.484 2349.69L558.828 2354.42C560.076 2355.13 561.498 2355.43 562.895 2355.33C563.361 2355.29 563.827 2355.2 564.281 2355.08L625.874 2243.96C625.403 2243.46 624.851 2243.04 624.233 2242.68L585.994 2220.93L565.781 2209.47C565.207 2209.14 564.585 2208.91 563.951 2208.74L498.308 2319.39Z" fill="white"/>
</mask>
<g mask="url(#mask1_241_106)">
<path d="M427.159 2260.55L543.354 2415.49L697.024 2303.63L580.822 2148.7L427.159 2260.55Z" fill="#F11348"/>
</g>
<mask id="mask2_241_106" style="mask-type:luminance" maskUnits="userSpaceOnUse" x="500" y="2208" width="128" height="148">
<path d="M561.612 2208.59C560.632 2208.68 559.674 2208.98 558.791 2209.48L500.558 2242.59L563.351 2355.27C564.225 2355.15 565.084 2354.86 565.86 2354.42L624.259 2321.18C626.061 2320.15 627.295 2318.41 627.669 2316.44L563.656 2208.7C563.185 2208.61 562.714 2208.56 562.229 2208.56C562.034 2208.56 561.84 2208.57 561.646 2208.59" fill="white"/>
</mask>
<g mask="url(#mask2_241_106)">
<path d="M500.557 2208.56V2355.27H627.644V2208.56H500.557Z" fill="#F11348"/>
</g>
<path d="M0 396V231.84H34.884L92.34 300.468L149.568 231.84H184.68V396H151.62V280.86L92.34 351.768L32.832 281.088V396H0Z" fill="#F11348"/>
<path d="M16 1130V965.84H167.392V998.9H49.288V1031.28H144.364V1064.56H49.288V1096.94H167.392V1130H16Z" fill="#F11348"/>
<path d="M139.048 1786L90.484 1728.09H133.576L173.704 1775.74V1786H139.048ZM10 1786V1622.07H141.1C147.18 1622.07 152.652 1623.59 157.516 1626.63C162.532 1629.52 166.56 1633.47 169.6 1638.48C172.64 1643.5 174.16 1648.97 174.16 1654.9V1698.22C174.16 1704.15 172.64 1709.62 169.6 1714.64C166.56 1719.5 162.532 1723.45 157.516 1726.49C152.652 1729.38 147.18 1730.82 141.1 1730.82L42.832 1731.05V1786H10ZM44.2 1697.76H139.504C139.96 1697.76 140.264 1697.69 140.416 1697.54C140.72 1697.23 140.872 1696.93 140.872 1696.62V1656.27C140.872 1655.81 140.72 1655.51 140.416 1655.36C140.264 1655.05 139.96 1654.9 139.504 1654.9H44.2C43.744 1654.9 43.364 1655.05 43.06 1655.36C42.908 1655.51 42.832 1655.81 42.832 1656.27V1696.62C42.832 1696.93 42.908 1697.23 43.06 1697.54C43.364 1697.69 43.744 1697.76 44.2 1697.76Z" fill="#F11348"/>
<path d="M10 2397V2232.84H44.884L140.872 2347.3V2232.84H174.16V2397H139.276L42.832 2282.09V2397H10Z" fill="#F11348"/>
</svg>
