<svg width="89" height="1996" viewBox="0 0 89 1996" fill="none" xmlns="http://www.w3.org/2000/svg">
<path d="M55.3751 1863.56L2.18758 1844.06L2.18758 1807.19L86.1876 1844.06V1883L44.1876 1901.44L86.1876 1919.88V1958.81L2.18758 1995.69L2.18758 1958.81L55.3751 1939.38L2.18758 1919.88L2.18758 1883L55.3751 1863.56Z" fill="#F11348"/>
<path d="M57.3751 1722.75L57.3751 1771.94H86.0626V1804.69H2.06258L2.06257 1771.94H30.7501L30.7501 1722.75H2.06257L2.06257 1689.94H86.0626L86.0626 1722.75H57.3751Z" fill="#F11348"/>
<path d="M86.1876 1670.81H2.18757L2.18757 1572.5H23.6876L23.6876 1638.06H34.4376L34.4376 1572.5H53.8751L53.8751 1638.06H64.6251V1572.5H86.1876V1670.81Z" fill="#F11348"/>
<path d="M2.12507 1555.06L2.12506 1474.13C1.93756 1456.81 16.5001 1442.13 33.8751 1442.38C40.1876 1442.38 45.9376 1444.06 51.0626 1447.44C56.1251 1450.75 60.0001 1455.19 62.5626 1460.69L86.1251 1442.38V1477.25L65.6251 1493.06V1522.31H86.1251L86.1251 1555.06H2.12507ZM26.6876 1482.38L26.6876 1522.31H41.0001L41.0001 1482.38C41.0001 1480.38 40.3126 1478.69 38.9376 1477.31C37.5001 1475.88 35.8126 1475.19 33.8751 1475.19C29.8751 1475.19 26.6876 1478.38 26.6876 1482.38Z" fill="#F11348"/>
<path d="M86.1876 1432.19H2.18756L2.18756 1333.88H23.6876L23.6876 1399.44H34.4376V1333.88H53.8751V1399.44H64.6251L64.6251 1333.88H86.1876L86.1876 1432.19Z" fill="#F11348"/>
<path d="M86.1876 1251.88V1284.63H28.8126L28.8126 1323.56H2.18756L2.18755 1212.94H28.8125L28.8126 1251.88H86.1876Z" fill="#F11348"/>
<path d="M4.78968e-05 1153.06C4.65144e-05 1121.44 9.25005 1095.75 41 1095.75H47.125C78.875 1095.63 88.0625 1121.5 88.125 1153.06C88.0625 1184.69 78.875 1210.56 47.125 1210.44H41C9.18755 1210.56 0.0625493 1184.69 4.78968e-05 1153.06ZM45.0625 1128.5H43C29.3125 1128.31 26.8125 1139.69 26.625 1153.06C26.8125 1166.5 29.3125 1177.88 43 1177.69H45.0625C58.8125 1177.88 61.3126 1166.5 61.5 1153.06C61.3125 1139.69 58.8125 1128.31 45.0625 1128.5Z" fill="#F11348"/>
<path d="M55.375 968.063L2.18754 948.563L2.18754 911.688L86.1875 948.563V987.5L44.1875 1005.94L86.1875 1024.38V1063.31L2.18755 1100.19L2.18754 1063.31L55.375 1043.88L2.18754 1024.38L2.18754 987.5L55.375 968.063Z" fill="#F11348"/>
<path d="M2.06254 909.188L2.06254 876.438H86.0625V909.188H2.06254Z" fill="#F11348"/>
<path d="M86.1875 794.5V827.25H28.8125L28.8125 866.188H2.18754L2.18753 755.563H28.8125L28.8125 794.5H86.1875Z" fill="#F11348"/>
<path d="M57.375 662.625V711.813H86.0625V744.563H2.06253L2.06253 711.813H30.75L30.75 662.625H2.06253L2.06253 629.813H86.0625V662.625H57.375Z" fill="#F11348"/>
<path d="M44.1875 528.75C35.6875 528.75 28.8125 533.563 28.8125 542.063L28.8125 577.938H59.5625V542.063C59.5625 533.563 52.625 528.75 44.1875 528.75ZM2.18752 610.688L2.18752 535.938C1.87502 512.875 21.25 495.75 44.1875 495.938C67 495.75 86.5 512.875 86.1875 535.938V610.688H2.18752Z" fill="#F11348"/>
<path d="M1.62825e-05 429.813C1.49001e-05 398.188 9.25002 372.5 41 372.5H47.125C78.875 372.375 88.0625 398.25 88.125 429.813C88.0625 461.438 78.875 487.313 47.125 487.188H41C9.18752 487.313 0.0625177 461.438 1.62825e-05 429.813ZM45.0625 405.25H43C29.3125 405.063 26.8125 416.438 26.625 429.813C26.8125 443.25 29.3125 454.625 43 454.438H45.0625C58.8125 454.625 61.3125 443.25 61.5 429.813C61.3125 416.438 58.8125 405.063 45.0625 405.25Z" fill="#F11348"/>
<path d="M54.3125 306.563H39.9375L39.9375 249.5L88.125 249.5V265.875L75.0625 267.5C84.6875 277.25 88.125 292.063 88.125 306.313C88 337.938 78.875 363.813 47.125 363.688H41C9.18752 363.813 0.0625123 337.938 1.08841e-05 306.313C9.61104e-06 277.188 7.93751 253.188 33.8125 249.5L33.8125 284.313C31 286.375 29.125 289.375 28.125 293.25C27.125 297.125 26.625 301.5 26.625 306.313C26.8125 319.75 29.3125 331.125 43 330.938H45.0625C58.875 331.125 61.25 319.75 61.4375 306.313C61.4375 293.375 60.6875 285.125 54.3125 280.188V306.563Z" fill="#F11348"/>
<path d="M54.3125 182.063H39.9375V125H88.125V141.375L75.0625 143C84.6875 152.75 88.125 167.563 88.125 181.813C88 213.438 78.875 239.313 47.125 239.188H41C9.18751 239.313 0.0625068 213.438 5.44207e-06 181.813C4.16897e-06 152.688 7.9375 128.688 33.8125 125V159.813C31 161.875 29.125 164.875 28.125 168.75C27.125 172.625 26.625 177 26.625 181.813C26.8125 195.25 29.3125 206.625 43 206.438H45.0625C58.875 206.625 61.25 195.25 61.4375 181.813C61.4375 168.875 60.6875 160.625 54.3125 155.688V182.063Z" fill="#F11348"/>
<path d="M0 57.313C-1.38237e-06 25.688 9.25 0.000452669 41 0.000451281L47.125 0.000451014C78.875 -0.12455 88.0625 25.7505 88.125 57.313C88.0625 88.938 78.875 114.813 47.125 114.688H41C9.1875 114.813 0.0625014 88.938 0 57.313ZM45.0625 32.7505H43C29.3125 32.563 26.8125 43.938 26.625 57.313C26.8125 70.7505 29.3125 82.1255 43 81.938H45.0625C58.8125 82.1254 61.3125 70.7505 61.5 57.313C61.3125 43.938 58.8125 32.5629 45.0625 32.7505Z" fill="#F11348"/>
</svg>
