<svg width="98" height="1329" viewBox="0 0 98 1329" fill="none" xmlns="http://www.w3.org/2000/svg">
<path d="M95.7064 1329L2.29362 1329L2.29362 1283.4L49 1246.97L2.29361 1210.48L2.29361 1164.94L95.7064 1164.94L95.7064 1201.37L45.8724 1201.37L95.7064 1237.86L95.7064 1256.08L45.8724 1292.57L95.7064 1292.57L95.7064 1329Z" fill="#F11348"/>
<path d="M2.36311 1143.67L2.36311 1053.65C2.1546 1034.39 18.3489 1018.06 37.6709 1018.33C44.6908 1018.33 51.0851 1020.21 56.7844 1023.97C62.4142 1027.65 66.7234 1032.59 69.5731 1038.7L95.7759 1018.33L95.7759 1057.12L72.9788 1074.71L72.9788 1107.25L95.7759 1107.25L95.7759 1143.67L2.36311 1143.67ZM29.678 1062.82L29.678 1107.25L45.5943 1107.25L45.5943 1062.82C45.5943 1060.6 44.8298 1058.72 43.3007 1057.19C41.7021 1055.59 39.8255 1054.83 37.6709 1054.83C33.2227 1054.83 29.678 1058.38 29.678 1062.82Z" fill="#F11348"/>
<path d="M68.461 1015.48L68.461 979.058L95.7759 979.058L95.7759 1015.48L68.461 1015.48Z" fill="#F11348"/>
<path d="M60.3986 843.225L44.4128 843.225L44.4128 779.757L98 779.757L98 797.97L83.4738 799.777C94.1773 810.622 98 827.097 98 842.947C97.861 878.122 87.7135 906.901 52.4057 906.762L45.5943 906.762C10.217 906.901 0.0694839 878.122 -2.12461e-05 842.947C-2.26621e-05 810.552 8.82693 783.858 37.6014 779.757L37.6014 818.477C34.4738 820.771 32.3887 824.108 31.2766 828.418C30.1645 832.728 29.6085 837.594 29.6085 842.947C29.817 857.893 32.5972 870.544 47.8185 870.336L50.1121 870.336C65.4724 870.544 68.1135 857.893 68.322 842.947C68.322 828.557 67.488 819.381 60.3986 813.889L60.3986 843.225Z" fill="#F11348"/>
<path d="M29.4695 705.097L57.0624 717.958L57.0624 692.306L29.4695 705.097ZM95.8454 776.907L2.4326 726.786L2.4326 683.478L95.8454 633.357L95.8454 674.371L79.8596 681.74L79.8596 728.524L95.8454 735.893L95.8454 776.907Z" fill="#F11348"/>
<path d="M2.29359 630.507L2.29359 594.081L66.0979 594.081L66.0979 521.159L95.7064 521.159L95.7064 630.507L2.29359 630.507Z" fill="#F11348"/>
<path d="M2.29358 508.715L2.29358 472.289L66.0979 472.289L66.0979 399.367L95.7064 399.367L95.7064 508.715L2.29358 508.715Z" fill="#F11348"/>
<path d="M95.8454 386.924L2.43258 386.924L2.43258 277.576L26.3418 277.576L26.3418 350.498L38.2964 350.498L38.2964 277.576L59.912 277.576L59.9121 350.498L71.8667 350.498L71.8667 277.576L95.8454 277.576L95.8454 386.924Z" fill="#F11348"/>
<path d="M2.36308 258.181L2.36307 168.158C2.15456 148.903 18.3489 132.566 37.6709 132.844C44.6908 132.844 51.0851 134.721 56.7844 138.475C62.4142 142.16 66.7234 147.095 69.573 153.212L95.7759 132.844L95.7759 171.634L72.9787 189.222L72.9787 221.755L95.7759 221.755L95.7759 258.181L2.36308 258.181ZM29.678 177.334L29.678 221.755L45.5943 221.755L45.5943 177.334C45.5943 175.11 44.8298 173.233 43.3007 171.704C41.7021 170.105 39.8255 169.34 37.6709 169.34C33.2227 169.34 29.678 172.885 29.678 177.334Z" fill="#F11348"/>
<path d="M2.43257 97.9476L35.9333 70.6279L2.43257 43.2388L2.43257 3.15884e-05L63.9432 52.4148L95.8454 52.4148L95.8454 88.841L63.9432 88.841L2.43257 141.256L2.43257 97.9476Z" fill="#F11348"/>
</svg>
