<svg width="75" height="883" viewBox="0 0 75 883" fill="none" xmlns="http://www.w3.org/2000/svg">
<path d="M0.111326 850.043L52.0458 827.221L0.111324 804.399L0.111323 771.557L74.9236 809.909L74.9236 844.588L0.111328 882.885L0.111326 850.043Z" fill="#F11348"/>
<path d="M-4.96362e-06 769.33L-6.23859e-06 740.162L74.8123 740.162L74.8123 769.33L-4.96362e-06 769.33Z" fill="#F11348"/>
<path d="M39.6327 651.713L-1.01049e-05 651.713L-1.13823e-05 622.489L74.8123 622.489L74.8123 655.331L29.1122 695.52L74.8123 695.52L74.8123 724.688L-6.915e-06 724.688L-8.6693e-06 684.554L39.6327 651.713Z" fill="#F11348"/>
<path d="M0.111315 585.584L26.9413 563.708L0.111313 541.776L0.111311 507.153L49.3739 549.124L74.9236 549.124L74.9236 578.292L49.3739 578.292L0.111316 620.262L0.111315 585.584Z" fill="#F11348"/>
<path d="M-1.65211e-05 504.927L-1.7796e-05 475.759L51.0995 475.759L51.0994 417.367L74.8123 417.367L74.8123 504.927L-1.65211e-05 504.927Z" fill="#F11348"/>
<path d="M74.9236 372.836L74.9236 402.004L23.8241 402.004L23.8241 436.683L0.111308 436.683L0.111304 338.158L23.8241 338.158L23.8241 372.836L74.9236 372.836Z" fill="#F11348"/>
<path d="M74.9236 328.361L0.111304 328.361L0.1113 240.802L19.2597 240.802L19.2597 299.193L28.8339 299.193L28.8339 240.802L46.1454 240.802L46.1454 299.193L55.7195 299.193L55.7195 240.802L74.9236 240.802L74.9236 328.361Z" fill="#F11348"/>
<path d="M49.2625 183.356L49.2625 196.103L74.8123 196.103L74.8123 225.271L-2.87452e-05 225.271L-3.00202e-05 196.103L25.5497 196.103L25.5497 183.356L-3.17769e-05 155.914L-3.34509e-05 117.617L37.4061 156.415L74.8123 117.617L74.8123 155.914L49.2625 183.356Z" fill="#F11348"/>
<path d="M21.7646 57.8899L43.8631 68.1877L43.8631 47.6477L21.7646 57.8899ZM74.9236 115.391L0.111293 75.257L0.111291 40.5784L74.9236 0.444746L74.9236 33.2865L62.1209 39.1868L62.1209 76.6486L74.9236 82.549L74.9236 115.391Z" fill="#F11348"/>
</svg>
