<svg width="700" height="2483" viewBox="0 0 700 2483" fill="none" xmlns="http://www.w3.org/2000/svg">
<path d="M49.749 2132.97C49.749 2251.81 118.814 2354.51 218.963 2403.18L75.7433 2010.78C59.0841 2048.12 49.749 2089.44 49.749 2132.97Z" fill="#F11348"/>
<path d="M552.678 2117.82C552.678 2080.72 539.35 2055.02 527.918 2035.02C512.698 2010.29 498.433 1989.34 498.433 1964.61C498.433 1937.01 519.366 1911.32 548.85 1911.32C550.182 1911.32 551.444 1911.49 552.741 1911.56C499.324 1862.63 428.157 1832.75 349.991 1832.75C245.1 1832.75 152.818 1886.56 99.1324 1968.07C106.177 1968.29 112.815 1968.43 118.454 1968.43C149.858 1968.43 198.471 1964.62 198.471 1964.62C214.656 1963.67 216.564 1987.44 200.396 1989.36C200.396 1989.36 184.131 1991.27 166.032 1992.22L275.368 2317.42L341.073 2120.37L294.295 1992.21C278.127 1991.26 262.811 1989.34 262.811 1989.34C246.631 1988.4 248.528 1963.66 264.707 1964.61C264.707 1964.61 314.291 1968.42 343.793 1968.42C375.192 1968.42 423.809 1964.61 423.809 1964.61C440.006 1963.66 441.908 1987.43 425.735 1989.34C425.735 1989.34 409.435 1991.26 391.371 1992.21L499.873 2314.95L529.82 2214.88C542.8 2173.35 552.678 2143.52 552.678 2117.82Z" fill="#F11348"/>
<path d="M355.259 2159.23L265.176 2420.99C292.073 2428.9 320.518 2433.22 349.991 2433.22C384.955 2433.22 418.485 2427.18 449.695 2416.2C448.89 2414.92 448.158 2413.55 447.558 2412.07L355.259 2159.23Z" fill="#F11348"/>
<path d="M613.442 1988.93C614.733 1998.49 615.464 2008.76 615.464 2019.8C615.464 2050.27 609.774 2084.51 592.635 2127.34L500.924 2392.49C590.184 2340.44 650.222 2243.74 650.222 2132.98C650.228 2080.78 636.894 2031.69 613.442 1988.93Z" fill="#F11348"/>
<path d="M349.991 1783C157.011 1783 0 1940 0 2132.97C0 2325.97 157.011 2482.96 349.991 2482.96C542.966 2482.96 700 2325.97 700 2132.97C699.994 1940 542.966 1783 349.991 1783ZM349.991 2466.92C165.861 2466.92 16.0479 2317.11 16.0479 2132.97C16.0479 1948.85 165.855 1799.05 349.991 1799.05C534.117 1799.05 683.918 1948.85 683.918 2132.97C683.918 2317.11 534.117 2466.92 349.991 2466.92Z" fill="#F11348"/>
<path fill-rule="evenodd" clip-rule="evenodd" d="M349.999 1679.4C156.703 1679.4 0 1600.29 0 1502.7C0 1405.11 156.703 1326 349.999 1326C543.295 1326 700 1405.11 700 1502.7C700 1600.29 543.295 1679.4 349.999 1679.4ZM686.327 1502.7C686.327 1593.04 535.745 1666.28 349.999 1666.28C164.253 1666.28 13.6718 1593.04 13.6718 1502.7C13.6718 1412.36 164.253 1339.12 349.999 1339.12C535.745 1339.12 686.327 1412.36 686.327 1502.7Z" fill="#F11348"/>
<path d="M186.98 1459.8H208.257C225.247 1459.8 231.149 1463.38 233.154 1465.51C236.481 1469.05 237.109 1476.52 234.97 1487.1C232.568 1498.94 228.114 1507.34 221.732 1512.06C215.197 1516.89 204.573 1519.33 190.158 1519.33H174.924L186.98 1459.8ZM223.477 1417.28H146.187C142.551 1417.28 139.426 1419.75 138.732 1423.18L102.871 1600.26C102.438 1602.39 103.023 1604.6 104.465 1606.28C105.908 1607.96 108.058 1608.94 110.326 1608.94H150.519C154.156 1608.94 157.281 1606.46 157.975 1603.04L166.315 1561.86H194.48C210.408 1561.86 223.816 1560.19 234.33 1556.9C245.142 1553.53 255.09 1547.82 263.894 1539.91C271.176 1533.49 277.173 1526.27 281.718 1518.46C286.264 1510.65 289.53 1501.95 291.425 1492.58C296.128 1469.37 292.307 1450.79 280.071 1437.34C267.954 1424.03 248.912 1417.28 223.477 1417.28ZM165.71 1526.62H190.158C206.363 1526.62 218.434 1523.7 226.365 1517.84C234.297 1511.97 239.647 1502.19 242.427 1488.49C245.086 1475.33 243.875 1466.04 238.792 1460.63C233.703 1455.22 223.527 1452.51 208.257 1452.51H180.719L165.71 1526.62ZM223.477 1424.57C246.728 1424.57 263.69 1430.43 274.352 1442.14C285.012 1453.85 288.222 1470.2 283.969 1491.19C282.218 1499.84 279.257 1507.74 275.088 1514.91C270.915 1522.07 265.465 1528.63 258.73 1534.57C250.704 1541.78 241.789 1546.91 231.978 1549.97C222.167 1553.04 209.671 1554.57 194.48 1554.57H160.053L150.519 1601.65H110.326L146.187 1424.57H223.477Z" fill="#F11348"/>
<path d="M357.166 1370.2H317.29C313.653 1370.2 310.527 1372.68 309.833 1376.1L273.973 1553.18C273.54 1555.32 274.124 1557.53 275.568 1559.21C277.011 1560.89 279.16 1561.86 281.429 1561.86H321.305C324.941 1561.86 328.067 1559.38 328.761 1555.96L348.108 1460.41H373.716C385.569 1460.41 388.057 1462.84 388.157 1462.94C388.876 1463.69 389.821 1467.13 388.26 1474.83L372.397 1553.18C371.964 1555.32 372.549 1557.53 373.992 1559.21C375.435 1560.89 377.585 1561.86 379.853 1561.86H420.363C423.998 1561.86 427.125 1559.38 427.819 1555.96L444.502 1473.56C448.418 1454.21 445.068 1439.7 434.551 1430.43C424.515 1421.58 407.703 1417.28 383.156 1417.28H356.845L364.622 1378.88C365.054 1376.75 364.47 1374.53 363.027 1372.86C361.584 1371.17 359.434 1370.2 357.166 1370.2ZM357.166 1377.49L347.632 1424.57H383.156C405.508 1424.57 420.926 1428.31 429.411 1435.79C437.897 1443.28 440.439 1455.4 437.047 1472.17L420.363 1554.57H379.853L395.717 1476.22C397.522 1467.31 396.858 1461.23 393.724 1457.99C390.588 1454.74 383.918 1453.12 373.716 1453.12H341.846L321.305 1554.57H281.429L317.29 1377.49H357.166Z" fill="#F11348"/>
<path d="M500.692 1459.8H521.97C538.96 1459.8 544.861 1463.38 546.866 1465.51C550.195 1469.05 550.822 1476.52 548.683 1487.1C546.28 1498.94 541.826 1507.34 535.444 1512.06C528.91 1516.89 518.286 1519.33 503.871 1519.33H488.638L500.692 1459.8ZM537.19 1417.28H459.901C456.265 1417.28 453.14 1419.75 452.446 1423.18L416.585 1600.26C416.152 1602.39 416.737 1604.6 418.179 1606.28C419.622 1607.96 421.772 1608.94 424.04 1608.94H464.233C467.868 1608.94 470.995 1606.46 471.689 1603.04L480.028 1561.86H508.193C524.121 1561.86 537.529 1560.19 548.042 1556.9C558.855 1553.53 568.805 1547.82 577.609 1539.91C584.891 1533.48 590.886 1526.27 595.431 1518.46C599.977 1510.65 603.243 1501.95 605.138 1492.58C609.841 1469.37 606.02 1450.78 593.784 1437.34C581.666 1424.03 562.626 1417.28 537.19 1417.28ZM479.424 1526.62H503.871C520.076 1526.62 532.146 1523.7 540.077 1517.84C548.011 1511.97 553.359 1502.19 556.139 1488.49C558.8 1475.33 557.589 1466.04 552.505 1460.63C547.416 1455.22 537.239 1452.51 521.97 1452.51H494.431L479.424 1526.62ZM537.19 1424.57C560.441 1424.57 577.403 1430.43 588.064 1442.14C598.726 1453.85 601.935 1470.2 597.681 1491.19C595.931 1499.84 592.97 1507.74 588.801 1514.91C584.627 1522.07 579.178 1528.63 572.443 1534.57C564.417 1541.78 555.501 1546.91 545.69 1549.97C535.88 1553.04 523.384 1554.57 508.193 1554.57H473.765L464.233 1601.65H424.04L459.901 1424.57H537.19Z" fill="#F11348"/>
<path fill-rule="evenodd" clip-rule="evenodd" d="M350 803C256.667 803 198.333 849.672 175 943.016C210 896.344 250.833 878.842 297.5 890.51C324.126 897.161 343.156 916.491 364.22 937.869C398.533 972.705 438.252 1013.02 525 1013.02C618.333 1013.02 676.667 966.352 700 873.008C665 919.68 624.167 937.182 577.5 925.514C550.874 918.863 531.844 899.533 510.78 878.155C476.467 843.319 436.748 803 350 803ZM175 1013.02C81.6667 1013.02 23.3333 1059.7 0 1153.04C35 1106.37 75.8333 1088.87 122.5 1100.53C149.126 1107.2 168.156 1126.52 189.22 1147.89C223.533 1182.73 263.252 1223.05 350 1223.05C443.333 1223.05 501.667 1176.38 525 1083.03C490 1129.7 449.167 1147.21 402.5 1135.54C375.874 1128.89 356.844 1109.56 335.78 1088.18C301.467 1053.34 261.748 1013.02 175 1013.02Z" fill="#F11348"/>
<path fill-rule="evenodd" clip-rule="evenodd" d="M0 0H700V700H0V0ZM535.111 586.822C502.667 586.822 484.322 569.9 470.222 546.877L416.767 577.933C436.078 616.089 475.544 645.2 536.633 645.2C599.111 645.2 645.633 612.755 645.633 553.533C645.633 498.6 614.078 474.166 558.189 450.2L541.744 443.155C513.522 430.933 501.3 422.944 501.3 403.211C501.3 387.244 513.511 375.022 532.778 375.022C551.667 375.022 563.833 382.988 575.111 403.211L626.333 370.322C604.667 332.211 574.6 317.655 532.778 317.655C474.033 317.655 436.444 355.211 436.444 404.544C436.444 458.1 467.978 483.433 515.444 503.655L531.889 510.711C561.889 523.833 579.778 531.822 579.778 554.377C579.778 573.2 562.367 586.822 535.111 586.822ZM280.189 586.411C257.589 586.411 248.189 570.911 237.856 552.577L184.311 584.994C199.822 617.822 230.322 645.077 282.989 645.077C341.278 645.077 381.211 614.077 381.211 545.966V321.411H315.433V545.077C315.433 577.955 301.8 586.411 280.189 586.411Z" fill="#F11348"/>
</svg>
